<svg xmlns="http://www.w3.org/2000/svg" width="88" height="26" viewBox="-3 -4 101 22">
  <g
    id="openkit-text"
    stroke-linecap="round"
    fill-rule="evenodd"
    font-size="9pt"
    stroke="#ffffff"
    fill="#ffffff"
    stroke-width="0.5"
    style="filter: drop-shadow(0px 0px 1px rgba(0, 0, 0, 1))"
  >
    <path
      d="M 10.449 7.405 A 9.087 9.087 0 0 0 10.544 6.064 A 8.93 8.93 0 0 0 10.429 4.597 A 6.5 6.5 0 0 0 9.944 2.968 A 5.489 5.489 0 0 0 9.925 2.927 A 4.573 4.573 0 0 0 8.176 0.92 A 4.198 4.198 0 0 0 8.089 0.867 Q 7.427 0.477 6.597 0.312 A 6.686 6.686 0 0 0 5.296 0.192 A 8.338 8.338 0 0 0 4.983 0.198 Q 3.4 0.257 2.328 0.928 Q 1.152 1.664 0.576 2.976 A 6.604 6.604 0 0 0 0.118 4.545 A 9.093 9.093 0 0 0 0 6.048 A 9.935 9.935 0 0 0 0.049 7.049 A 7.79 7.79 0 0 0 0.32 8.464 Q 0.64 9.552 1.296 10.328 A 4.217 4.217 0 0 0 1.599 10.651 A 4.451 4.451 0 0 0 2.944 11.528 Q 3.936 11.952 5.28 11.952 Q 6.576 11.952 7.56 11.536 Q 8.544 11.12 9.208 10.336 A 4.866 4.866 0 0 0 9.643 9.734 A 5.563 5.563 0 0 0 10.208 8.472 A 7.129 7.129 0 0 0 10.449 7.405 Z M 1.838 8.314 A 4.972 4.972 0 0 0 1.92 8.544 A 3.586 3.586 0 0 0 2.45 9.489 A 3.076 3.076 0 0 0 3.16 10.144 Q 3.954 10.673 5.14 10.702 A 5.688 5.688 0 0 0 5.28 10.704 Q 6.374 10.704 7.131 10.305 A 2.789 2.789 0 0 0 7.4 10.144 A 3.178 3.178 0 0 0 8.444 8.947 A 4.047 4.047 0 0 0 8.624 8.544 A 5.665 5.665 0 0 0 8.918 7.443 Q 9.004 6.926 9.02 6.339 A 9.959 9.959 0 0 0 9.024 6.064 Q 9.024 3.904 8.128 2.68 Q 7.232 1.456 5.296 1.456 Q 4.19 1.456 3.416 1.858 A 2.901 2.901 0 0 0 3.16 2.008 A 3.141 3.141 0 0 0 2.056 3.281 A 3.958 3.958 0 0 0 1.92 3.592 A 5.548 5.548 0 0 0 1.633 4.649 Q 1.52 5.299 1.52 6.064 Q 1.52 7.348 1.838 8.314 Z"
      id="0" vector-effect="non-scaling-stroke" />
    <path
      d="M 14.288 10.704 L 14.192 10.704 Q 14.222 10.962 14.253 11.351 A 30.718 30.718 0 0 1 14.256 11.392 Q 14.288 11.808 14.288 12.112 L 14.288 15.632 L 12.88 15.632 L 12.88 3.216 L 14.032 3.216 L 14.224 4.384 L 14.288 4.384 Q 14.544 4.016 14.904 3.712 A 2.557 2.557 0 0 1 15.482 3.348 A 3.141 3.141 0 0 1 15.768 3.232 Q 16.272 3.056 16.96 3.056 Q 18.544 3.056 19.512 4.16 Q 20.24 4.99 20.421 6.455 A 8.465 8.465 0 0 1 20.48 7.488 A 8.023 8.023 0 0 1 20.413 8.556 Q 20.338 9.116 20.178 9.588 A 4.32 4.32 0 0 1 20.04 9.944 Q 19.6 10.944 18.808 11.448 A 3.211 3.211 0 0 1 17.494 11.916 A 4.131 4.131 0 0 1 16.944 11.952 A 4.183 4.183 0 0 1 16.342 11.911 A 3.12 3.12 0 0 1 15.776 11.776 A 3.407 3.407 0 0 1 15.289 11.567 A 2.626 2.626 0 0 1 14.904 11.32 A 3.452 3.452 0 0 1 14.405 10.848 A 3.108 3.108 0 0 1 14.288 10.704 Z M 14.288 7.216 L 14.288 7.488 Q 14.288 8.544 14.512 9.28 A 2.445 2.445 0 0 0 14.762 9.848 A 1.875 1.875 0 0 0 15.272 10.4 A 1.876 1.876 0 0 0 15.85 10.672 Q 16.236 10.784 16.736 10.784 A 2.329 2.329 0 0 0 17.324 10.713 A 1.729 1.729 0 0 0 18.024 10.352 Q 18.528 9.92 18.776 9.176 A 4.67 4.67 0 0 0 18.97 8.325 A 6.359 6.359 0 0 0 19.024 7.472 A 6.203 6.203 0 0 0 18.957 6.53 Q 18.881 6.036 18.719 5.631 A 3.002 3.002 0 0 0 18.456 5.12 A 1.848 1.848 0 0 0 17.11 4.268 A 2.783 2.783 0 0 0 16.704 4.24 Q 16.07 4.24 15.618 4.416 A 1.849 1.849 0 0 0 15.312 4.568 A 1.795 1.795 0 0 0 14.649 5.308 A 2.342 2.342 0 0 0 14.544 5.552 A 3.675 3.675 0 0 0 14.388 6.131 Q 14.298 6.61 14.288 7.216 Z"
      id="1" vector-effect="non-scaling-stroke" />
    <path
      d="M 29.568 6.928 L 29.568 7.776 L 23.696 7.776 Q 23.728 9.232 24.44 9.992 A 2.327 2.327 0 0 0 25.653 10.67 A 3.501 3.501 0 0 0 26.432 10.752 Q 27.219 10.752 27.835 10.611 A 4.481 4.481 0 0 0 27.88 10.6 A 7.722 7.722 0 0 0 28.763 10.329 A 9.231 9.231 0 0 0 29.184 10.16 L 29.184 11.392 A 6.918 6.918 0 0 1 28.219 11.736 A 6.065 6.065 0 0 1 27.888 11.816 Q 27.344 11.932 26.627 11.949 A 10.703 10.703 0 0 1 26.368 11.952 A 5.07 5.07 0 0 1 25.189 11.82 A 4.1 4.1 0 0 1 24.216 11.456 Q 23.28 10.96 22.76 9.976 Q 22.24 8.992 22.24 7.568 A 7.043 7.043 0 0 1 22.324 6.451 Q 22.439 5.735 22.712 5.152 A 3.863 3.863 0 0 1 23.362 4.168 A 3.377 3.377 0 0 1 24.04 3.6 A 3.487 3.487 0 0 1 25.548 3.082 A 4.393 4.393 0 0 1 26.032 3.056 A 4.267 4.267 0 0 1 26.938 3.148 A 3.206 3.206 0 0 1 27.928 3.536 Q 28.72 4.016 29.144 4.888 Q 29.568 5.76 29.568 6.928 Z M 23.728 6.656 L 28.096 6.656 Q 28.096 5.952 27.891 5.424 A 2.497 2.497 0 0 0 27.872 5.376 A 1.949 1.949 0 0 0 27.49 4.774 A 1.82 1.82 0 0 0 27.192 4.52 A 1.694 1.694 0 0 0 26.635 4.277 Q 26.355 4.208 26.016 4.208 A 2.524 2.524 0 0 0 25.32 4.299 A 1.877 1.877 0 0 0 24.424 4.856 Q 23.84 5.504 23.728 6.656 Z"
      id="2" vector-effect="non-scaling-stroke" />
    <path
      d="M 38.976 6.208 L 38.976 11.792 L 37.584 11.792 L 37.584 6.304 A 3.714 3.714 0 0 0 37.543 5.733 Q 37.497 5.437 37.399 5.2 A 1.54 1.54 0 0 0 37.12 4.752 Q 36.739 4.332 36.004 4.257 A 3.331 3.331 0 0 0 35.664 4.24 A 3.961 3.961 0 0 0 34.97 4.296 Q 34.096 4.453 33.696 5.04 A 2.719 2.719 0 0 0 33.354 5.772 Q 33.247 6.12 33.196 6.542 A 6.786 6.786 0 0 0 33.152 7.344 L 33.152 11.792 L 31.744 11.792 L 31.744 3.216 L 32.88 3.216 L 33.088 4.384 L 33.168 4.384 Q 33.456 3.936 33.88 3.64 Q 34.304 3.344 34.816 3.2 Q 35.328 3.056 35.872 3.056 A 5.055 5.055 0 0 1 36.754 3.128 Q 37.652 3.287 38.192 3.8 A 2.216 2.216 0 0 1 38.728 4.627 Q 38.866 4.985 38.927 5.432 A 5.729 5.729 0 0 1 38.976 6.208 Z"
      id="3" vector-effect="non-scaling-stroke" />
    <path
      d="M 45.472 5.344 L 50.176 11.792 L 48.48 11.792 L 44.432 6.336 L 43.264 7.36 L 43.264 11.792 L 41.824 11.792 L 41.824 0.368 L 43.264 0.368 L 43.264 6 Q 43.744 5.456 44.24 4.912 L 45.232 3.824 L 48.32 0.368 L 50 0.368 L 45.472 5.344 Z"
      id="4" vector-effect="non-scaling-stroke" />
    <path
      d="M 51.536 3.216 L 52.944 3.216 L 52.944 11.792 L 51.536 11.792 L 51.536 3.216 Z M 52.256 0 Q 52.576 0 52.824 0.216 A 0.666 0.666 0 0 1 53.016 0.51 Q 53.054 0.621 53.066 0.757 A 1.532 1.532 0 0 1 53.072 0.896 A 1.286 1.286 0 0 1 53.048 1.154 Q 52.995 1.414 52.824 1.568 Q 52.576 1.792 52.256 1.792 A 0.913 0.913 0 0 1 51.941 1.739 A 0.81 0.81 0 0 1 51.664 1.568 A 0.706 0.706 0 0 1 51.474 1.257 Q 51.438 1.144 51.428 1.007 A 1.52 1.52 0 0 1 51.424 0.896 A 1.418 1.418 0 0 1 51.445 0.644 Q 51.47 0.507 51.524 0.401 A 0.63 0.63 0 0 1 51.664 0.216 A 0.836 0.836 0 0 1 52.18 0.003 A 1.091 1.091 0 0 1 52.256 0 Z"
      id="5" vector-effect="non-scaling-stroke" />
    <path
      d="M 59.728 10.624 L 59.728 11.696 Q 59.514 11.803 59.125 11.874 A 4.798 4.798 0 0 1 59.088 11.88 A 4.884 4.884 0 0 1 58.507 11.946 A 4.247 4.247 0 0 1 58.288 11.952 A 3.413 3.413 0 0 1 57.451 11.852 A 3.011 3.011 0 0 1 57.048 11.72 A 1.868 1.868 0 0 1 56.237 11.075 A 2.366 2.366 0 0 1 56.128 10.912 A 2.082 2.082 0 0 1 55.907 10.391 Q 55.835 10.139 55.803 9.835 A 5.096 5.096 0 0 1 55.776 9.296 L 55.776 4.304 L 54.56 4.304 L 54.56 3.632 L 55.792 3.072 L 56.352 1.248 L 57.184 1.248 L 57.184 3.216 L 59.664 3.216 L 59.664 4.304 L 57.184 4.304 L 57.184 9.264 A 2.592 2.592 0 0 0 57.217 9.694 Q 57.255 9.919 57.337 10.098 A 1.108 1.108 0 0 0 57.56 10.424 A 1.269 1.269 0 0 0 58.357 10.792 A 1.724 1.724 0 0 0 58.528 10.8 Q 58.848 10.8 59.184 10.744 A 6.593 6.593 0 0 0 59.4 10.705 Q 59.496 10.685 59.578 10.665 A 2.712 2.712 0 0 0 59.728 10.624 Z"
      id="6" vector-effect="non-scaling-stroke" />
  </g>

  <g fill="none" stroke="#1c8bd5" stroke-width="1" stroke-linecap="round" stroke-linejoin="round"
    class="feather feather-box" transform="translate(65, -5)">
    <path
      d="M21 16V8a2 2 0 0 0-1-1.73l-7-4a2 2 0 0 0-2 0l-7 4A2 2 0 0 0 3 8v8a2 2 0 0 0 1 1.73l7 4a2 2 0 0 0 2 0l7-4A2 2 0 0 0 21 16z">
    </path>
    <polyline points="3.27 6.96 12 12.01 20.73 6.96"></polyline>
    <line x1="12" y1="22.08" x2="12" y2="12"></line>
  </g>
</svg>
